<?xml version="1.0" encoding="UTF-8"?>
<svg width="77px" height="76px" viewBox="0 0 77 76" version="1.1" xmlns="http://www.w3.org/2000/svg" xmlns:xlink="http://www.w3.org/1999/xlink">
    <!-- Generator: Sketch 48.1 (47250) - http://www.bohemiancoding.com/sketch -->
    <title>Group 33</title>
    <desc>Created with Sketch.</desc>
    <defs></defs>
    <g id="NEW" stroke="none" stroke-width="1" fill="none" fill-rule="evenodd" transform="translate(-656.000000, -947.000000)">
        <g id="Group-6" transform="translate(64.000000, 782.000000)">
            <g id="Req2" transform="translate(593.000000, 151.000000)">
                <g id="Group-7-Copy-3">
                    <g id="Group-33" transform="translate(0.000000, 15.000000)">
                        <ellipse id="Oval-2" stroke="#152B58" stroke-width="2" cx="37.5" cy="37" rx="37.5" ry="37"></ellipse>
                        <g id="rupee" transform="translate(28.000000, 24.000000)" fill="#152B58" fill-rule="nonzero">
                            <path d="M17.2227979,7.05719734 L13.2746114,7.05719734 C13.0492228,4.86162483 11.8756477,2.82287894 10.1580311,1.56826608 L17.2227979,1.56826608 C17.6502591,1.56826608 18,1.21540621 18,0.784133038 C18,0.352859867 17.6502591,0 17.2227979,0 L0.777202073,0 C0.349740933,0 0,0.352859867 0,0.784133038 C0,1.21540621 0.349740933,1.56826608 0.777202073,1.56826608 L5.48704663,1.56826608 C8.68911917,1.56826608 11.3316062,3.99907849 11.7124352,7.05719734 L0.777202073,7.05719734 C0.349740933,7.05719734 0,7.41005721 0,7.84133038 C0,8.27260355 0.349740933,8.62546342 0.777202073,8.62546342 L11.7124352,8.62546342 C11.3238342,11.8012022 8.65025907,14.1849667 5.48704663,14.192808 L0.784974093,14.192808 C0.349740933,14.2006493 -5.52235287e-16,14.5613505 0.00777202073,15.000465 C0.00777202073,15.2121809 0.101036269,15.4160555 0.248704663,15.5650408 L12.007772,26.7859846 C12.3186528,27.0839551 12.8082902,27.0682725 13.1036269,26.7546192 C13.3989637,26.4331247 13.3834197,25.9391209 13.0725389,25.633309 L2.72797927,15.7610741 L5.47927461,15.7610741 C9.53626943,15.7610741 12.8860104,12.6245419 13.2746114,8.62546342 L17.2227979,8.62546342 C17.6502591,8.62546342 18,8.27260355 18,7.84133038 C18,7.41005721 17.6502591,7.05719734 17.2227979,7.05719734 Z" id="Shape"></path>
                        </g>
                    </g>
                </g>
            </g>
        </g>
    </g>
</svg>