<?xml version="1.0" encoding="UTF-8"?>
<svg width="105px" height="71px" viewBox="0 0 105 71" version="1.1" xmlns="http://www.w3.org/2000/svg" xmlns:xlink="http://www.w3.org/1999/xlink">
    <!-- Generator: Sketch 48.1 (47250) - http://www.bohemiancoding.com/sketch -->
    <title>delivery-truck (1)</title>
    <desc>Created with Sketch.</desc>
    <defs></defs>
    <g id="NEW" stroke="none" stroke-width="1" fill="none" fill-rule="evenodd" transform="translate(-445.000000, -2338.000000)">
        <g id="Group-24" transform="translate(0.000000, 2036.000000)" fill="#152B58" fill-rule="nonzero">
            <g id="Group-21" transform="translate(363.000000, 232.000000)">
                <g id="delivery-truck-(1)" transform="translate(82.000000, 70.000000)">
                    <path d="M85.8430055,51.9139785 C83.2773366,51.9139785 80.8399511,52.910693 79.0012217,54.7132616 C77.1624924,56.537037 76.1362248,58.9121864 76.1362248,61.4569892 C76.1362248,64.0017921 77.1411118,66.3769415 79.0012217,68.2007168 C80.8613317,70.0032855 83.2773366,71 85.8430055,71 C91.1026268,71 95.3787416,66.7162485 95.3787416,61.4569892 C95.3787416,56.19773 91.1026268,51.9139785 85.8430055,51.9139785 Z M85.8430055,66.7586619 C82.8924863,66.7586619 80.4123396,64.3410992 80.4123396,61.4569892 C80.4123396,58.5728793 82.8924863,56.1553166 85.8430055,56.1553166 C88.7507636,56.1553166 91.1026268,58.5304659 91.1026268,61.4569892 C91.1026268,64.3835125 88.7507636,66.7586619 85.8430055,66.7586619 Z M88.3231521,20.1251493 C87.9383018,19.7646356 87.425168,19.5737754 86.8906536,19.5737754 L75.9224191,19.5737754 C74.7464875,19.5737754 73.7843616,20.5280765 73.7843616,21.6944444 L73.7843616,39.0839307 C73.7843616,40.2502987 74.7464875,41.2045998 75.9224191,41.2045998 L93.3262065,41.2045998 C94.5021381,41.2045998 95.4642639,40.2502987 95.4642639,39.0839307 L95.4642639,27.4414576 C95.4642639,26.8476703 95.207697,26.2750896 94.7587049,25.8721625 L88.3231521,20.1251493 Z M91.1881491,36.9632616 L78.0604765,36.9632616 L78.0604765,23.7939068 L86.0568112,23.7939068 L91.1881491,28.374552 L91.1881491,36.9632616 Z M33.6316432,51.9139785 C31.0659743,51.9139785 28.6285889,52.910693 26.7898595,54.7132616 C24.9511301,56.537037 23.9248626,58.9121864 23.9248626,61.4569892 C23.9248626,64.0017921 24.9297495,66.3769415 26.7898595,68.2007168 C28.6499695,70.0032855 31.0659743,71 33.6316432,71 C38.8912645,71 43.1673794,66.7162485 43.1673794,61.4569892 C43.1673794,56.19773 38.8912645,51.9139785 33.6316432,51.9139785 Z M33.6316432,66.7586619 C30.681124,66.7586619 28.2009774,64.3410992 28.2009774,61.4569892 C28.2009774,58.5728793 30.681124,56.1553166 33.6316432,56.1553166 C36.5394013,56.1553166 38.8912645,58.5304659 38.8912645,61.4569892 C38.8912645,64.3835125 36.5394013,66.7586619 33.6316432,66.7586619 Z M19.3708002,54.5224014 L15.0733048,54.5224014 L15.0733048,48.8814217 C15.0733048,47.7150538 14.111179,46.7607527 12.9352474,46.7607527 C11.7593158,46.7607527 10.79719,47.7150538 10.79719,48.8814217 L10.79719,56.6430705 C10.79719,57.8094385 11.7593158,58.7637395 12.9352474,58.7637395 L19.3708002,58.7637395 C20.5467318,58.7637395 21.5088577,57.8094385 21.5088577,56.6430705 C21.5088577,55.4767025 20.5467318,54.5224014 19.3708002,54.5224014 Z M30.2107514,42.9647551 C30.2107514,41.7983871 29.2486255,40.844086 28.072694,40.844086 L2.13805742,40.844086 C0.96212584,40.844086 0,41.7983871 0,42.9647551 C0,44.1311231 0.96212584,45.0854241 2.13805742,45.0854241 L28.072694,45.0854241 C29.2486255,45.0854241 30.2107514,44.1523297 30.2107514,42.9647551 Z M6.47831399,35.3091398 L32.4129505,35.4575866 C33.5888821,35.4575866 34.5510079,34.5244922 34.5723885,33.3581243 C34.5937691,32.1705496 33.6316432,31.2162485 32.4557117,31.2162485 L6.52107514,31.0678017 C6.49969456,31.0678017 6.49969456,31.0678017 6.49969456,31.0678017 C5.32376298,31.0678017 4.36163714,32.0008961 4.36163714,33.167264 C4.34025657,34.3548387 5.30238241,35.3091398 6.47831399,35.3091398 Z M10.8399511,25.6813023 L36.7745877,25.6813023 C37.9505192,25.6813023 38.9126451,24.7270012 38.9126451,23.5606332 C38.9126451,22.3942652 37.9505192,21.4399642 36.7745877,21.4399642 L10.8399511,21.4399642 C9.66401955,21.4399642 8.70189371,22.3942652 8.70189371,23.5606332 C8.70189371,24.7270012 9.66401955,25.6813023 10.8399511,25.6813023 Z M104.208919,22.818399 L88.9004276,10.2428315 C88.5155773,9.92473118 88.0452046,9.75507766 87.5320709,9.75507766 L69.5296274,9.75507766 L69.5296274,2.12066906 C69.5296274,0.954301075 68.5675015,0 67.3915699,0 L12.9352474,0 C11.7593158,0 10.79719,0.954301075 10.79719,2.12066906 L10.79719,17.6439665 C10.79719,18.8103345 11.7593158,19.7646356 12.9352474,19.7646356 C14.111179,19.7646356 15.0733048,18.8103345 15.0733048,17.6439665 L15.0733048,4.24133811 L65.2748931,4.24133811 L65.2748931,54.5224014 L47.7428222,54.5224014 C46.5668907,54.5224014 45.6047648,55.4767025 45.6047648,56.6430705 C45.6047648,57.8094385 46.5668907,58.7637395 47.7428222,58.7637395 L73.8485034,58.7637395 C75.0244349,58.7637395 75.9865608,57.8094385 75.9865608,56.6430705 C75.9865608,55.4767025 75.0244349,54.5224014 73.8485034,54.5224014 L69.5510079,54.5224014 L69.5510079,13.9964158 L86.7837508,13.9964158 L100.723885,25.4480287 L100.574221,54.4799881 L98.3506414,54.4799881 C97.1747098,54.4799881 96.212584,55.4342891 96.212584,56.6006571 C96.212584,57.7670251 97.1747098,58.7213262 98.3506414,58.7213262 L102.690898,58.7213262 C103.86683,58.7213262 104.828955,57.7882318 104.828955,56.6218638 L105,24.4725209 C104.978619,23.8363202 104.700672,23.2213262 104.208919,22.818399 Z" id="Shape"></path>
                </g>
            </g>
        </g>
    </g>
</svg>