<?xml version="1.0" encoding="UTF-8"?>
<svg width="77px" height="77px" viewBox="0 0 77 77" version="1.1" xmlns="http://www.w3.org/2000/svg" xmlns:xlink="http://www.w3.org/1999/xlink">
    <!-- Generator: Sketch 48.1 (47250) - http://www.bohemiancoding.com/sketch -->
    <title>Group 35</title>
    <desc>Created with Sketch.</desc>
    <defs></defs>
    <g id="NEW" stroke="none" stroke-width="1" fill="none" fill-rule="evenodd" transform="translate(-658.000000, -1127.000000)">
        <g id="Group-6" transform="translate(64.000000, 782.000000)">
            <g id="Req2" transform="translate(593.000000, 341.000000)">
                <g id="Group-7-Copy-5" transform="translate(0.000000, 5.000000)">
                    <g id="Group-35" transform="translate(2.000000, 0.000000)">
                        <g id="credit-cards-payment" transform="translate(23.000000, 25.000000)" fill="#152B58" fill-rule="nonzero">
                            <path d="M27.8854247,3.98173036 L10.0059536,0.0317324145 C9.2494994,-0.135336534 8.49972344,0.374136614 8.3396841,1.1638175 L8,3.442628 L28.6299057,8 L28.9695898,5.72118951 C29.1296292,4.9318074 28.6418789,4.14884911 27.8854247,3.98173036 Z" id="Shape"></path>
                            <path d="M20.5250788,7.77153243 C20.3165942,7.005509 19.531991,6.55272628 18.7814369,6.76510028 L15.3930142,7.72484027 L7.40497703,6 L6.52646533,10.2350902 L1.03748154,11.7894871 C0.286975017,12.0019097 -0.156804827,12.8024299 0.0513464446,13.5682104 L3.14470958,24.9413699 C3.3531942,25.7071018 4.13784496,26.160176 4.88835149,25.9475105 L22.6323068,20.9234638 C23.3828134,20.7107497 23.8265932,19.910521 23.6184419,19.144449 L23.0874681,17.192027 L25.0775009,17.6212935 C25.8326743,17.7845946 26.5811807,17.2875005 26.7409491,16.5170071 L28,10.4466868 L20.8318055,8.89904351 L20.5250788,7.77153243 Z M22.5742569,13.5518366 L23.0130841,11.4357734 C23.0789916,11.1189372 23.3869088,10.9145801 23.6973975,10.9814845 L25.7713861,11.4295057 C26.0822082,11.4967501 26.282502,11.8105739 26.2169279,12.1277016 L25.7781007,14.2437648 C25.7121932,14.5606009 25.4043236,14.7652496 25.0937873,14.6980537 L23.0197987,14.250324 C22.7086909,14.1828366 22.5083494,13.8686727 22.5742569,13.5518366 Z M1.34625593,12.924432 L6.25669252,11.5345509 L17.8428275,8.25409901 L19.0895922,7.90067681 C19.112355,7.89440908 19.1350702,7.89144527 19.1572616,7.89144527 C19.2572656,7.89144527 19.3768419,7.95839822 19.4117957,8.08661945 L19.5581826,8.62447809 L20.0168202,10.3106431 L1.76903492,15.4771956 L1.16401047,13.2534635 C1.12610417,13.1139215 1.20953612,12.9631073 1.34625593,12.924432 Z M22.5057303,19.4591473 C22.5290646,19.5454379 22.5045874,19.6168123 22.4797769,19.6614638 C22.4552997,19.7060667 22.4080597,19.7644197 22.3234848,19.7881788 L4.57986283,24.8122255 C4.55743335,24.8184932 4.5343848,24.8217486 4.51219343,24.8217486 C4.41218939,24.8217486 4.29261312,24.7545041 4.25765933,24.6262829 L2.45339592,17.9924986 L20.7011812,12.8256545 L21.8141309,16.9170728 L22.5057303,19.4591473 Z" id="Shape"></path>
                            <path d="M7.37276886,20.4450518 C7.28319163,20.122942 6.94697644,19.9327525 6.62488921,20.0220353 L4.44482605,20.627275 C4.12303941,20.7165579 3.93256255,21.0530972 4.02213978,21.3752069 L4.62703654,23.5551218 C4.71661377,23.8772316 5.05282895,24.0674211 5.37491619,23.9778376 L7.55497935,23.3728986 C7.87706659,23.2836157 8.06724284,22.9470764 7.97796621,22.6249667 L7.37276886,20.4450518 Z" id="Shape"></path>
                        </g>
                        <g id="Oval-2" stroke="#152B58" stroke-width="2">
                            <ellipse cx="37.2527473" cy="37.2289157" rx="37.2527473" ry="37.2289157"></ellipse>
                        </g>
                    </g>
                </g>
            </g>
        </g>
    </g>
</svg>