<?xml version="1.0" encoding="UTF-8"?>
<svg width="29px" height="29px" viewBox="0 0 29 29" version="1.1" xmlns="http://www.w3.org/2000/svg" xmlns:xlink="http://www.w3.org/1999/xlink">
    <!-- Generator: Sketch 48.1 (47250) - http://www.bohemiancoding.com/sketch -->
    <title>facebook</title>
    <desc>Created with Sketch.</desc>
    <defs></defs>
    <g id="NEW" stroke="none" stroke-width="1" fill="none" fill-rule="evenodd" transform="translate(-137.000000, -4836.000000)">
        <g id="Footer" transform="translate(0.000000, 4782.000000)" fill="#475993" fill-rule="nonzero">
            <g id="SocialIcons" transform="translate(76.000000, 54.000000)">
                <g id="facebook" transform="translate(61.000000, 0.000000)">
                    <path d="M25.0920924,0 L3.90783664,0 C1.74964101,0 0,1.74955723 0,3.90780796 L0,25.0920502 C0,27.2503009 1.74957007,28.9998581 3.90783664,28.9998581 L14.3558105,28.9998581 L14.3736169,18.6368778 L11.6812995,18.6368778 C11.3314138,18.6368778 11.0474332,18.3539634 11.0460854,18.0040804 L11.0331739,14.6636618 C11.031826,14.3118634 11.3166579,14.0259695 11.668459,14.0259695 L14.3558815,14.0259695 L14.3558815,10.7982769 C14.3558815,7.05257004 16.6435461,5.0130043 19.9849823,5.0130043 L22.7268882,5.0130043 C23.0776961,5.0130043 23.3621733,5.29740844 23.3621733,5.64828469 L23.3621733,8.46494271 C23.3621733,8.81567707 23.0779089,9.10001027 22.7272429,9.1002231 L21.0445711,9.10100345 C19.2273934,9.10100345 18.8755214,9.96450238 18.8755214,11.2317289 L18.8755214,14.0260404 L22.8684883,14.0260404 C23.2489499,14.0260404 23.5441393,14.358259 23.499304,14.736093 L23.1033771,18.0765115 C23.0654941,18.3961736 22.7944249,18.6370197 22.4725614,18.6370197 L18.8933278,18.6370197 L18.8755214,29 L25.0922343,29 C27.2504299,29 29,27.2504428 29,25.092263 L29,3.90780796 C28.9999291,1.74955723 27.250359,0 25.0920924,0 Z" id="Shape"></path>
                </g>
            </g>
        </g>
    </g>
</svg>