<?xml version="1.0" encoding="UTF-8"?>
<svg width="29px" height="29px" viewBox="0 0 29 29" version="1.1" xmlns="http://www.w3.org/2000/svg" xmlns:xlink="http://www.w3.org/1999/xlink">
    <!-- Generator: Sketch 48.1 (47250) - http://www.bohemiancoding.com/sketch -->
    <title>google-plus</title>
    <desc>Created with Sketch.</desc>
    <defs></defs>
    <g id="NEW" stroke="none" stroke-width="1" fill="none" fill-rule="evenodd" transform="translate(-252.000000, -4837.000000)">
        <g id="Footer" transform="translate(0.000000, 4782.000000)" fill-rule="nonzero">
            <g id="SocialIcons" transform="translate(76.000000, 54.000000)">
                <g id="google-plus" transform="translate(176.000000, 1.000000)">
                    <circle id="XMLID_30_" fill="#DC4E41" cx="14.5" cy="14.5" r="14.5"></circle>
                    <g id="Group" transform="translate(6.000000, 8.000000)">
                        <path d="M0.129162162,6.02757447 C0.0807567568,8.49191489 1.69783784,10.8436596 3.9222973,11.6106383 C6.01759459,12.3495319 8.59378378,11.796766 9.98805405,9.9132766 C11.006027,8.59353191 11.2373514,6.83412766 11.1271622,5.19038298 C9.33275676,5.17353191 7.53835135,5.17914894 5.74662162,5.18195745 C5.7437027,5.85293617 5.74662162,6.5213617 5.7492973,7.19234043 C6.8237027,7.22348936 7.89835135,7.20919149 8.97275676,7.23191489 C8.70154054,8.20748936 8.0837027,9.11540426 7.146,9.46774468 C5.33554054,10.3051915 3.02545946,9.21114894 2.45578378,7.21761702 C1.76813514,5.30859574 2.89386486,3.00485106 4.75248649,2.44953191 C5.90497297,2.02391489 7.09224324,2.50314894 8.07835135,3.132 C8.57797297,2.6412766 9.04548649,2.11685106 9.50472973,1.58680851 C8.38435135,0.602808511 6.94459459,-0.000510638298 5.46445946,0.132 C2.56037838,0.168255319 0.018972973,2.98238298 0.129162162,6.02757447 Z" id="Shape" fill="#DC4E41"></path>
                        <path d="M14.6194054,3.48970213 C14.6140541,4.05089362 14.6084595,4.61489362 14.6057838,5.17582979 C14.0684595,5.18144681 13.5340541,5.18425532 12.9994054,5.18706383 C12.9994054,5.74825532 12.9994054,6.30638298 12.9994054,6.86757447 C13.5340541,6.87038298 14.0713784,6.87319149 14.6057838,6.87906383 C14.6111351,7.44025532 14.6111351,8.00119149 14.6164865,8.56519149 C15.1484595,8.56519149 15.6831081,8.56238298 16.2175135,8.56519149 C16.2204324,8.00119149 16.2228649,7.44025532 16.2284595,6.87625532 C16.7628649,6.87344681 17.3001892,6.8706383 17.8348378,6.86782979 C17.8348378,6.3066383 17.8348378,5.74851064 17.8348378,5.18731915 C17.3004324,5.18451064 16.7631081,5.18170213 16.2284595,5.17608511 C16.2255405,4.61489362 16.2204324,4.05089362 16.2175135,3.48995745 C15.6831081,3.48970213 15.1511351,3.48970213 14.6194054,3.48970213 Z" id="Shape" fill="#DC4E41"></path>
                        <g fill="#FFFFFF" id="Shape">
                            <path d="M0.129162162,6.02757447 C0.018972973,2.98238298 2.56013514,0.168255319 5.46421622,0.131744681 C6.94435135,-0.000765957447 8.38435135,0.602553191 9.50448649,1.58655319 C9.045,2.11685106 8.57748649,2.64102128 8.07810811,3.13174468 C7.092,2.50289362 5.90472973,2.02365957 4.75224324,2.4492766 C2.89337838,3.00485106 1.76764865,5.30859574 2.45554054,7.2173617 C3.02521622,9.21089362 5.3352973,10.3049362 7.14575676,9.46748936 C8.08321622,9.11514894 8.7012973,8.20723404 8.97251351,7.23165957 C7.89810811,7.20919149 6.82345946,7.22323404 5.74905405,7.19208511 C5.74637838,6.52110638 5.7437027,5.85268085 5.74637838,5.18170213 C7.53810811,5.17889362 9.33251351,5.1732766 11.1269189,5.19012766 C11.2371081,6.83412766 11.006027,8.59353191 9.98781081,9.91302128 C8.59354054,11.7965106 6.01759459,12.3492766 3.92205405,11.610383 C1.69808108,10.8436596 0.0807567568,8.49191489 0.129162162,6.02757447 Z"></path>
                            <path d="M14.6194054,3.48970213 C15.1513784,3.48970213 15.6831081,3.48970213 16.2175135,3.48970213 C16.2204324,4.05089362 16.2255405,4.61489362 16.2284595,5.17582979 C16.7628649,5.18144681 17.3001892,5.18425532 17.8348378,5.18706383 C17.8348378,5.74825532 17.8348378,6.30638298 17.8348378,6.86757447 C17.3004324,6.87038298 16.7631081,6.87319149 16.2284595,6.876 C16.2231081,7.44 16.2204324,8.00093617 16.2175135,8.56493617 C15.6831081,8.56212766 15.1482162,8.56493617 14.6164865,8.56493617 C14.6113784,8.00093617 14.6113784,7.44 14.6057838,6.87880851 C14.0713784,6.87293617 13.5340541,6.87038298 12.9994054,6.86731915 C12.9994054,6.30612766 12.9994054,5.748 12.9994054,5.18680851 C13.5340541,5.184 14.0687027,5.18119149 14.6057838,5.17557447 C14.6084595,4.61489362 14.6138108,4.05089362 14.6194054,3.48970213 Z"></path>
                        </g>
                    </g>
                </g>
            </g>
        </g>
    </g>
</svg>