<?xml version="1.0" encoding="UTF-8"?>
<svg width="101px" height="88px" viewBox="0 0 101 88" version="1.1" xmlns="http://www.w3.org/2000/svg" xmlns:xlink="http://www.w3.org/1999/xlink">
    <!-- Generator: Sketch 48.1 (47250) - http://www.bohemiancoding.com/sketch -->
    <title>handshake</title>
    <desc>Created with Sketch.</desc>
    <defs></defs>
    <g id="NEW" stroke="none" stroke-width="1" fill="none" fill-rule="evenodd" transform="translate(-144.000000, -2329.000000)">
        <g id="Group-24" transform="translate(0.000000, 2036.000000)" fill="#152B58" fill-rule="nonzero">
            <g id="Group-20" transform="translate(70.000000, 232.000000)">
                <g id="handshake" transform="translate(74.000000, 61.000000)">
                    <path d="M98.9849525,22.6851218 L78.4253835,2.02801419 C77.1236952,0.720150409 75.3933323,0 73.5525533,0 C71.7117742,0 69.9814113,0.720150409 68.6801051,2.02801419 L63.8485376,6.88211969 C63.1050432,7.62914138 62.5751219,8.50783237 62.2427272,9.44256917 L39.6368293,5.37617616 C39.6353011,5.37579229 39.6333908,5.37579229 39.6318625,5.37540841 C29.4674611,3.34816198 19.5433771,9.98767236 17.4936097,20.2014474 L16.45096,25.3979698 C15.2994224,31.1365244 19.0096353,36.7460969 24.7210936,37.9030976 C30.432934,39.0593306 36.0160192,35.3322835 37.1675568,29.5937289 L37.8048377,26.4160076 L47.9421127,27.3065987 L74.4152513,53.9053311 L79.2131972,58.7260394 C80.1847832,59.7022348 80.1844011,61.2907115 79.2131972,62.2669069 C78.2419933,63.2427184 76.6610171,63.2431022 75.6894311,62.2669069 L62.8372171,49.3537194 C61.9420437,48.4542992 60.4902047,48.4542992 59.5954134,49.3537194 C58.70024,50.2531397 58.70024,51.7114827 59.5954134,52.6109029 L72.4476274,65.5240904 C72.9183289,65.997025 73.1773675,66.625813 73.1773675,67.2945241 C73.1773675,67.9632352 72.9183289,68.5916394 72.4476274,69.064574 C71.4756593,70.0407693 69.8950651,70.0403854 68.9238612,69.064574 L56.0716472,56.1513865 C55.1764738,55.2519663 53.7246348,55.2519663 52.8298435,56.1513865 C51.9346701,57.0508068 51.9346701,58.5091498 52.8298435,59.40857 L65.6820575,72.3217575 C66.6536434,73.2975689 66.6536434,74.8860457 65.6820575,75.862241 C65.211356,76.3351756 64.5855369,76.5954432 63.9203654,76.5954432 C63.2548118,76.5954432 62.6289928,76.3351756 62.1582913,75.862241 L49.3060773,62.9490536 C48.4109039,62.0496334 46.9590649,62.0496334 46.0642736,62.9490536 C45.1691002,63.8484739 45.1691002,65.3068168 46.0642736,66.2062371 L58.9164876,79.1194245 C59.8880735,80.0956199 59.8876915,81.6840966 58.9164876,82.660292 C57.9452837,83.6361035 56.3643074,83.6364874 55.3927214,82.660292 L9.91844848,36.9710479 L3.91318377,30.9372931 C3.01801039,30.0378728 1.56617136,30.0378728 0.671380037,30.9372931 C-0.223793346,31.8367133 -0.223793346,33.2950563 0.671380037,34.1944766 L6.67664475,40.2282314 L13.2118307,46.7944216 L9.6093596,50.4139835 C8.42993141,51.5990072 7.78004241,53.174816 7.78004241,54.8512003 C7.78004241,56.5275845 8.42954935,58.1033934 9.6093596,59.288417 L10.7849671,60.4696019 C11.8161549,61.5056818 13.1445876,62.1344698 14.5769415,62.2765038 C14.7183047,63.715653 15.3441238,65.050388 16.3753115,66.0860841 L17.5509191,67.2676528 C18.6096154,68.3313718 19.9571513,68.9313692 21.3421293,69.0699482 C21.4823464,70.5106329 22.1089295,71.8472874 23.1412635,72.884135 L24.3168711,74.0653199 C25.3480588,75.1013998 26.6764915,75.7301879 28.1088454,75.8722218 C28.2502086,77.311371 28.8760277,78.6461061 29.9072155,79.682186 L31.082823,80.8633709 C32.3004575,82.086782 33.8997728,82.6982957 35.4990881,82.6982957 C37.0984034,82.6982957 38.6977187,82.086782 39.9153532,80.8633709 L43.5178243,77.2438089 L52.1505356,85.9174755 C53.4873737,87.2606558 55.2643483,88 57.1544135,88 C59.0444786,88 60.8218353,87.2602719 62.1582913,85.9174755 C63.4244478,84.6453121 64.1434902,82.9743022 64.2164642,81.1877456 C65.994967,81.1144254 67.6577047,80.3919718 68.9242433,79.1198084 C70.2293701,77.8084898 70.90906,76.1083052 70.9797417,74.3870076 C72.6925297,74.3159906 74.3850683,73.6330761 75.6898132,72.3221413 C76.99494,71.0108227 77.6746299,69.3106381 77.7453116,67.5893405 C79.4584816,67.5183235 81.1510203,66.835409 82.4557651,65.5240904 C85.2150234,62.7517416 85.2150234,58.2412047 82.4557651,55.4688559 L79.2789121,52.2769313 L90.9024118,40.5982874 L98.9853346,32.4770176 C101.671619,29.7772214 101.671619,25.3845342 98.9849525,22.6851218 Z M12.8511633,56.0308496 C12.2035667,55.3801807 12.2035667,54.321836 12.8511633,53.671167 L16.2293635,50.27694 L19.7535117,53.8178075 L16.3753115,57.2120345 C15.728097,57.8627034 14.6739854,57.8623196 14.0267709,57.2120345 L12.8511633,56.0308496 Z M19.6171153,62.8289006 C18.9695187,62.1782316 18.9695187,61.1198869 19.6171153,60.4696019 L22.9953155,57.0753748 L26.5194637,60.6162423 L23.1416456,64.0104693 C22.4940489,64.6607544 21.4399374,64.6611383 20.7931049,64.0104693 L19.6171153,62.8289006 Z M26.3826852,69.6269515 C26.0690115,69.3117898 25.8963191,68.8925977 25.8963191,68.4473022 C25.8963191,68.0020066 26.0690115,67.5828146 26.3826852,67.2676528 L29.7608854,63.8734258 L33.2846515,67.4139094 L29.9064513,70.8081364 C29.2592368,71.4584215 28.2055073,71.4584215 27.5582927,70.8081364 L26.3826852,69.6269515 Z M36.6727853,77.6061874 C36.0255708,78.2568563 34.9714592,78.2564724 34.3242447,77.6061874 L33.1486371,76.4250025 C32.5010405,75.7743336 32.5010405,74.7159889 33.1486371,74.0653199 L36.5268373,70.6710929 L40.0509855,74.2119603 L36.6727853,77.6061874 Z M76.0363442,49.0193639 L50.5940114,23.4563276 C50.2127126,23.0732199 49.7099178,22.8375203 49.1727374,22.7906875 L36.1623493,21.6478902 C36.0947242,21.6417482 36.0274811,21.6390611 35.9610022,21.6390611 C34.8801462,21.6390611 33.9330123,22.4048927 33.7156185,23.4874215 L32.6729688,28.683944 C32.0211695,31.9322983 28.8622734,34.042078 25.6269648,33.3875703 C24.0608889,33.0704891 22.7110607,32.1591687 21.8269671,30.8221304 C20.9428736,29.4850921 20.629582,27.8820281 20.945548,26.3081386 L21.9881977,21.112 C23.5416654,13.3696154 31.0713611,8.33854328 38.7802443,9.90130038 C38.796291,9.90437138 38.8127197,9.90782626 38.8291484,9.91051339 L61.105708,13.9177896 L63.8485376,16.6736317 L86.0391331,38.9695037 L76.0363442,49.0193639 Z M95.7427667,29.2194503 L89.2805547,35.7123202 L67.0899593,13.4164482 C66.6544076,12.9788301 66.414472,12.3968749 66.414472,11.7776837 C66.414472,11.1584926 66.6544076,10.5769212 67.0899593,10.1389193 L71.9215267,5.28442992 C72.3570784,4.84681187 72.9362858,4.60573807 73.5521712,4.60573807 C74.1680566,4.60573807 74.747264,4.84681187 75.1831977,5.28442992 L95.7427667,25.9415375 C96.1783184,26.3791556 96.4182539,26.9611108 96.4182539,27.580302 C96.4182539,28.1994931 96.1783184,28.7818322 95.7427667,29.2194503 Z" id="Shape"></path>
                    <circle id="Oval" cx="90.5" cy="29.5" r="2.5"></circle>
                </g>
            </g>
        </g>
    </g>
</svg>