<?xml version="1.0" encoding="UTF-8"?>
<svg width="109px" height="68px" viewBox="0 0 109 68" version="1.1" xmlns="http://www.w3.org/2000/svg" xmlns:xlink="http://www.w3.org/1999/xlink">
    <!-- Generator: Sketch 48.1 (47250) - http://www.bohemiancoding.com/sketch -->
    <title>Group 3</title>
    <desc>Created with Sketch.</desc>
    <defs></defs>
    <g id="NEW" stroke="none" stroke-width="1" fill="none" fill-rule="evenodd" transform="translate(-167.000000, -1834.000000)">
        <g id="Group-12" transform="translate(167.000000, 1377.000000)">
            <g id="Group-11" transform="translate(0.000000, 111.000000)">
                <g id="Group-10" transform="translate(0.000000, 71.000000)">
                    <g id="Group-9" transform="translate(0.000000, 273.000000)">
                        <g id="Group-3" transform="translate(0.000000, 2.000000)">
                            <path d="M66.5,33.5 L106.512498,33.5" id="Line-2" stroke="#152B58" stroke-width="3" stroke-linecap="square"></path>
                            <g id="support" transform="translate(22.000000, 22.000000)" fill="#152B58" fill-rule="nonzero">
                                <path d="M0.844468221,13 C1.30093753,13 1.68893644,12.6388889 1.68893644,12.1649306 C1.68893644,9.25347222 2.87575665,6.63541667 4.81575121,4.71701389 C6.7329223,2.82118056 9.40326776,1.625 12.3474948,1.625 C14.515724,1.625 16.5698359,2.27951389 18.2815958,3.40798611 C19.4227691,4.17534722 20.4041781,5.14583333 21.1801759,6.296875 L20.2215904,5.93576389 C19.7879445,5.77777778 19.3086518,5.98090278 19.1488875,6.40972222 C18.9891232,6.83854167 19.1945344,7.3125 19.6281803,7.47048611 L22.6408777,8.64409722 C22.8462889,8.734375 23.0745236,8.734375 23.2799347,8.64409722 C23.5081694,8.55381944 23.6679337,8.37326389 23.7592275,8.14756944 L24.9460477,5.16840278 C25.105812,4.73958333 24.9004008,4.265625 24.4667549,4.10763889 C24.0331091,3.94965278 23.5538163,4.15277778 23.3940521,4.58159722 L22.8919358,5.86805556 C21.9561738,4.33333333 20.7008832,3.046875 19.2173579,2.07638889 C17.2317164,0.744791667 14.858076,0 12.3474948,0 C8.94679845,0 5.86563062,1.35416667 3.65175447,3.56597222 C1.39223139,5.75520833 0,8.80208333 0,12.1649306 C3.24340951e-15,12.6163194 0.387998912,13 0.844468221,13 Z" id="Shape"></path>
                                <path d="M24.1539871,12 C23.6966828,12 23.3079741,12.3611111 23.3079741,12.8350694 C23.3079741,15.7465278 22.118983,18.3645833 20.1754397,20.2829861 C18.2547617,22.1788194 15.5795316,23.375 12.6299189,23.375 C10.4577236,23.375 8.39985426,22.7204861 6.68496318,21.5920139 C5.54170245,20.8246528 4.55849823,19.8541667 3.78108093,18.703125 L4.74141994,19.0868056 C5.17585902,19.2447917 5.65602852,19.0416667 5.81608502,18.6128472 C5.97614153,18.1840278 5.7703546,17.7100694 5.33591552,17.5520833 L2.3177072,16.3784722 C2.11192027,16.2881944 1.88326813,16.2881944 1.6774812,16.3784722 C1.44882905,16.46875 1.28877255,16.6493056 1.19731169,16.875 L0.054050968,19.8315972 C-0.106005534,20.2604167 0.0997813971,20.734375 0.534220473,20.8923611 C0.968659548,21.0503472 1.44882905,20.8472222 1.60888555,20.4184028 L2.11192027,19.1319444 C3.04939407,20.6666667 4.30698087,21.953125 5.79321981,22.9236111 C7.78249347,24.2552083 10.1604758,25 12.6756494,25 C16.0825663,25 19.1693703,23.6458333 21.3872961,21.4340278 C23.6280871,19.2222222 25,16.1979167 25,12.8350694 C25,12.3836806 24.6112914,12 24.1539871,12 Z" id="Shape"></path>
                                <path d="M8,18 L18,18 C18,15.7931034 16.3225806,14 14.2580645,14 L11.7204301,14 C9.67741935,14 8,15.7931034 8,18 Z" id="Shape"></path>
                                <circle id="Oval" cx="13" cy="10" r="3"></circle>
                            </g>
                            <rect id="Rectangle-22" stroke="#152B58" stroke-width="3" x="1.5" y="1.5" width="65" height="65"></rect>
                        </g>
                    </g>
                </g>
            </g>
        </g>
    </g>
</svg>