<?xml version="1.0" encoding="UTF-8"?>
<svg width="32px" height="22px" viewBox="0 0 32 22" version="1.1" xmlns="http://www.w3.org/2000/svg" xmlns:xlink="http://www.w3.org/1999/xlink">
    <!-- Generator: Sketch 48.1 (47250) - http://www.bohemiancoding.com/sketch -->
    <title>delivery-truck</title>
    <desc>Created with Sketch.</desc>
    <defs></defs>
    <g id="NEW" stroke="none" stroke-width="1" fill="none" fill-rule="evenodd" transform="translate(-185.000000, -1717.000000)">
        <g id="Group-12" transform="translate(167.000000, 1377.000000)" fill="#152B58" fill-rule="nonzero">
            <g id="Group-11" transform="translate(0.000000, 111.000000)">
                <g id="Group-10" transform="translate(0.000000, 71.000000)">
                    <g id="Group-8" transform="translate(0.000000, 133.000000)">
                        <g id="Group-3" transform="translate(0.000000, 2.000000)">
                            <g id="delivery-truck" transform="translate(18.000000, 23.000000)">
                                <path d="M26.1616779,16.0860215 C25.3797597,16.0860215 24.6369375,16.3948626 24.0765628,16.953405 C23.5161881,17.5185185 23.2034209,18.2544803 23.2034209,19.0430108 C23.2034209,19.8315412 23.5096722,20.567503 24.0765628,21.1326165 C24.6434535,21.6911589 25.3797597,22 26.1616779,22 C27.7646101,22 29.067807,20.6726404 29.067807,19.0430108 C29.067807,17.4133811 27.7646101,16.0860215 26.1616779,16.0860215 Z M26.1616779,20.6857826 C25.262472,20.6857826 24.5066178,19.9366786 24.5066178,19.0430108 C24.5066178,18.1493429 25.262472,17.4002389 26.1616779,17.4002389 C27.0478518,17.4002389 27.7646101,18.1362007 27.7646101,19.0430108 C27.7646101,19.9498208 27.0478518,20.6857826 26.1616779,20.6857826 Z M26.9175321,6.23596177 C26.8002443,6.12425329 26.6438607,6.0651135 26.4809611,6.0651135 L23.138261,6.0651135 C22.7798819,6.0651135 22.4866626,6.36081243 22.4866626,6.72222222 L22.4866626,12.1105137 C22.4866626,12.4719235 22.7798819,12.7676225 23.138261,12.7676225 L28.4422724,12.7676225 C28.8006516,12.7676225 29.0938709,12.4719235 29.0938709,12.1105137 L29.0938709,8.50298686 C29.0938709,8.31899642 29.0156791,8.14157706 28.8788434,8.0167264 L26.9175321,6.23596177 Z M27.790674,11.453405 L23.7898595,11.453405 L23.7898595,7.37275986 L26.2268377,7.37275986 L27.790674,8.7921147 L27.790674,11.453405 Z M10.2496437,16.0860215 C9.46772551,16.0860215 8.72490328,16.3948626 8.16452861,16.953405 C7.60415394,17.5185185 7.29138668,18.2544803 7.29138668,19.0430108 C7.29138668,19.8315412 7.59763796,20.567503 8.16452861,21.1326165 C8.73141926,21.6911589 9.46772551,22 10.2496437,22 C11.8525759,22 13.1557728,20.6726404 13.1557728,19.0430108 C13.1557728,17.4133811 11.8525759,16.0860215 10.2496437,16.0860215 Z M10.2496437,20.6857826 C9.35043779,20.6857826 8.59458359,19.9366786 8.59458359,19.0430108 C8.59458359,18.1493429 9.35043779,17.4002389 10.2496437,17.4002389 C11.1358176,17.4002389 11.8525759,18.1362007 11.8525759,19.0430108 C11.8525759,19.9498208 11.1358176,20.6857826 10.2496437,20.6857826 Z M5.90348198,16.8942652 L4.59376909,16.8942652 L4.59376909,15.146356 C4.59376909,14.7849462 4.30054979,14.4892473 3.94217064,14.4892473 C3.58379149,14.4892473 3.29057218,14.7849462 3.29057218,15.146356 L3.29057218,17.551374 C3.29057218,17.9127838 3.58379149,18.2084827 3.94217064,18.2084827 L5.90348198,18.2084827 C6.26186113,18.2084827 6.55508043,17.9127838 6.55508043,17.551374 C6.55508043,17.1899642 6.26186113,16.8942652 5.90348198,16.8942652 Z M9.20708613,13.3130227 C9.20708613,12.9516129 8.91386683,12.655914 8.55548768,12.655914 L0.651598452,12.655914 C0.293219304,12.655914 0,12.9516129 0,13.3130227 C0,13.6744325 0.293219304,13.9701314 0.651598452,13.9701314 L8.55548768,13.9701314 C8.91386683,13.9701314 9.20708613,13.6810036 9.20708613,13.3130227 Z M1.97434331,10.9408602 L9.87823254,10.9868578 C10.2366117,10.9868578 10.529831,10.69773 10.536347,10.3363202 C10.542863,9.96833931 10.2496437,9.67264038 9.89126451,9.67264038 L1.98737528,9.62664277 C1.9808593,9.62664277 1.9808593,9.62664277 1.9808593,9.62664277 C1.62248015,9.62664277 1.32926084,9.91577061 1.32926084,10.2771804 C1.32274486,10.6451613 1.61596416,10.9408602 1.97434331,10.9408602 Z M3.30360415,7.95758662 L11.2074934,7.95758662 C11.5658725,7.95758662 11.8590918,7.66188769 11.8590918,7.3004779 C11.8590918,6.9390681 11.5658725,6.64336918 11.2074934,6.64336918 L3.30360415,6.64336918 C2.94522501,6.64336918 2.6520057,6.9390681 2.6520057,7.3004779 C2.6520057,7.66188769 2.94522501,7.95758662 3.30360415,7.95758662 Z M31.7589086,7.07048984 L27.0934637,3.17383513 C26.9761759,3.07526882 26.8328243,3.02270012 26.6764406,3.02270012 L21.1899817,3.02270012 L21.1899817,0.657108722 C21.1899817,0.295698925 20.8967624,0 20.5383832,0 L3.94217064,0 C3.58379149,0 3.29057218,0.295698925 3.29057218,0.657108722 L3.29057218,5.46714456 C3.29057218,5.82855436 3.58379149,6.12425329 3.94217064,6.12425329 C4.30054979,6.12425329 4.59376909,5.82855436 4.59376909,5.46714456 L4.59376909,1.31421744 L19.8933008,1.31421744 L19.8933008,16.8942652 L14.5501934,16.8942652 C14.1918143,16.8942652 13.898595,17.1899642 13.898595,17.551374 C13.898595,17.9127838 14.1918143,18.2084827 14.5501934,18.2084827 L22.5062105,18.2084827 C22.8645897,18.2084827 23.157809,17.9127838 23.157809,17.551374 C23.157809,17.1899642 22.8645897,16.8942652 22.5062105,16.8942652 L21.1964977,16.8942652 L21.1964977,4.33691756 L26.4483812,4.33691756 L30.6968031,7.88530466 L30.6511912,16.8811231 L29.9735288,16.8811231 C29.6151497,16.8811231 29.3219304,17.176822 29.3219304,17.5382318 C29.3219304,17.8996416 29.6151497,18.1953405 29.9735288,18.1953405 L31.2962737,18.1953405 C31.6546528,18.1953405 31.9478721,17.9062127 31.9478721,17.5448029 L32,7.58303465 C31.993484,7.38590203 31.9087762,7.1953405 31.7589086,7.07048984 Z" id="Shape"></path>
                            </g>
                        </g>
                    </g>
                </g>
            </g>
        </g>
    </g>
</svg>