<?xml version="1.0" encoding="UTF-8"?>
<svg width="79px" height="79px" viewBox="0 0 79 79" version="1.1" xmlns="http://www.w3.org/2000/svg" xmlns:xlink="http://www.w3.org/1999/xlink">
    <!-- Generator: Sketch 48.1 (47250) - http://www.bohemiancoding.com/sketch -->
    <title>Group 34</title>
    <desc>Created with Sketch.</desc>
    <defs></defs>
    <g id="NEW" stroke="none" stroke-width="1" fill="none" fill-rule="evenodd" transform="translate(-69.000000, -945.000000)">
        <g id="Group-6" transform="translate(64.000000, 782.000000)">
            <g id="Req1" transform="translate(6.000000, 158.000000)">
                <g id="Group-7-Copy">
                    <g id="Group-34" transform="translate(0.000000, 6.000000)">
                        <circle id="Oval-2" stroke="#152B58" stroke-width="2" cx="38.5" cy="38.5" r="38.5"></circle>
                        <g id="text-documents" transform="translate(25.000000, 23.000000)" fill="#152B58" fill-rule="nonzero">
                            <path d="M24.6834449,0 L6.74189934,0 C5.46471139,0 4.42534419,1.02428234 4.42534419,2.28219729 L4.42534419,3.73970784 L2.31648806,3.73970784 C1.03930012,3.73970784 0,4.76399018 0,6.02190512 L0,29.7178027 C0,30.9757177 1.03930012,32 2.31648806,32 L20.2586374,32 C21.5358924,32 22.5751925,30.9757177 22.5751925,29.7178027 L22.5751925,28.2602922 L24.6834449,28.2602922 C25.9608341,28.2602922 27,27.2360098 27,25.978161 L27,2.28219729 C27,1.02428234 25.9608341,0 24.6834449,0 Z M20.7220691,29.7178027 C20.7220691,29.9692139 20.5137663,30.174295 20.2586374,30.174295 L2.31648806,30.174295 C2.06142615,30.174295 1.85312336,29.9691478 1.85312336,29.7178027 L1.85312336,6.02190512 C1.85312336,5.7702957 2.06142615,5.56541279 2.31648806,5.56541279 L4.42534419,5.56541279 L4.42534419,25.9780949 C4.42534419,27.2359437 5.46471139,28.2602261 6.74189934,28.2602261 L20.7220691,28.2602261 L20.7220691,29.7178027 Z M25.1468766,25.978161 C25.1468766,26.229506 24.9390434,26.4346533 24.6834449,26.4346533 L6.74189934,26.4346533 C6.48623365,26.4346533 6.27860172,26.229506 6.27860172,25.978161 L6.27860172,2.28219729 C6.27860172,2.03065395 6.48630074,1.82570496 6.74189934,1.82570496 L24.6833778,1.82570496 C24.9390434,1.82570496 25.1468096,2.03072004 25.1468096,2.28219729 L25.1468096,25.978161 L25.1468766,25.978161 Z" id="Shape"></path>
                            <path d="M22.1001225,6 L8.90007298,6 C8.40302261,6 8,6.44816102 8,6.9999276 C8,7.55278019 8.40308778,8 8.90007298,8 L22.0999922,8 C22.5971077,8 23,7.55270779 23,6.9999276 C23.0001303,6.44823342 22.5971077,6 22.1001225,6 Z" id="Shape"></path>
                            <path d="M22.1001225,10 L8.90007298,10 C8.40302261,10 8,10.4480162 8,10.9999276 C8,11.5526354 8.40308778,12 8.90007298,12 L22.0999922,12 C22.5971077,12 23,11.552563 23,10.9999276 C23.0001303,10.4480886 22.5971077,10 22.1001225,10 Z" id="Shape"></path>
                            <path d="M22.1001225,14 L8.90007298,14 C8.40302261,14 8,14.4482172 8,15.0001086 C8,15.552724 8.40308778,16 8.90007298,16 L22.0999922,16 C22.5971077,16 23,15.552724 23,15.0001086 C23.0001303,14.4482172 22.5971077,14 22.1001225,14 Z" id="Shape"></path>
                            <path d="M22.1001225,19 L8.90007298,19 C8.40302261,19 8,19.4482334 8,19.9999276 C8,20.552925 8.40308778,21 8.90007298,21 L22.0999922,21 C22.5971077,21 23,20.5527802 23,19.9999276 C23.0001303,19.4482334 22.5971077,19 22.1001225,19 Z" id="Shape"></path>
                        </g>
                    </g>
                </g>
            </g>
        </g>
    </g>
</svg>