<?xml version="1.0" encoding="UTF-8"?>
<svg width="75px" height="76px" viewBox="0 0 75 76" version="1.1" xmlns="http://www.w3.org/2000/svg" xmlns:xlink="http://www.w3.org/1999/xlink">
    <!-- Generator: Sketch 48.1 (47250) - http://www.bohemiancoding.com/sketch -->
    <title>route</title>
    <desc>Created with Sketch.</desc>
    <defs></defs>
    <g id="NEW" stroke="none" stroke-width="1" fill="none" fill-rule="evenodd" transform="translate(-741.000000, -2338.000000)">
        <g id="Group-24" transform="translate(0.000000, 2036.000000)" fill="#152B58" fill-rule="nonzero">
            <g id="Group-22" transform="translate(655.000000, 232.000000)">
                <g id="route" transform="translate(86.000000, 70.000000)">
                    <path d="M44.25,31 L46.75,31 C47.44125,31 48,30.3295 48,29.5 C48,28.6705 47.44125,28 46.75,28 L44.25,28 C43.55875,28 43,28.6705 43,29.5 C43,30.3295 43.55875,31 44.25,31 Z" id="Shape"></path>
                    <path d="M39.2906379,39.3858252 C38.7443989,39.3845181 38.2132982,39.2838724 37.7112125,39.0851951 C37.0653133,38.8303131 36.3323691,39.1662345 36.0825878,39.8406916 C35.8353295,40.5151487 36.1620637,41.2706452 36.8117475,41.5281414 C37.6014601,41.8392282 38.432803,41.9986929 39.2881148,42 L39.7384781,42 C40.4360997,42 41,41.4157319 41,40.6929126 C41,39.9700933 40.4360997,39.3858252 39.7384781,39.3858252 L39.2906379,39.3858252 Z" id="Shape"></path>
                    <path d="M36.2926088,31 C36.5261749,31 36.7610314,30.9444932 36.9739508,30.8289484 C37.545607,30.5162977 38.1779131,30.3248558 38.8502221,30.2591539 C39.5586629,30.1900536 40.0696694,29.6304542 39.9922442,29.0085513 C39.914819,28.3866484 39.2812225,27.9425938 38.56762,28.0060302 C37.5068944,28.1091143 36.5106899,28.410437 35.6073956,28.9054672 C35.0021884,29.2362425 34.8189487,29.9351753 35.1957514,30.4664549 C35.4409313,30.8108237 35.8616084,31 36.2926088,31 Z" id="Shape"></path>
                    <path d="M44.5185859,51 C44.4110809,51 44.3048259,51.0029925 44.1985709,51.0089776 C43.5085383,51.0418953 42.9735131,51.7391521 43.0010144,52.5650873 C43.0272657,53.3700748 43.5822918,54 44.2485732,54 C44.266074,54 44.2835749,54 44.3010757,53.9985037 L46.7499411,53.9925187 C47.4412237,53.9925187 48,53.3236908 48,52.4962594 C48,51.6688279 47.4412237,51 46.7499411,51 L44.5185859,51 Z" id="Shape"></path>
                    <path d="M53.75,31 C54.44125,31 55,30.3295 55,29.5 C55,28.6705 54.44125,28 53.75,28 L51.25,28 C50.55875,28 50,28.6705 50,29.5 C50,30.3295 50.55875,31 51.25,31 L53.75,31 Z" id="Shape"></path>
                    <path d="M59.25,51 C58.55875,51 58,51.6705 58,52.5 C58,53.3295 58.55875,54 59.25,54 L61.75,54 C62.44125,54 63,53.3295 63,52.5 C63,51.6705 62.44125,51 61.75,51 L59.25,51 Z" id="Shape"></path>
                    <path d="M64,40.5 C64,39.6705 63.44125,39 62.75,39 L60.25,39 C59.55875,39 59,39.6705 59,40.5 C59,41.3295 59.55875,42 60.25,42 L62.75,42 C63.44,42 64,41.3295 64,40.5 Z" id="Shape"></path>
                    <path d="M52.25,54 L54.75,54 C55.44125,54 56,53.3295 56,52.5 C56,51.6705 55.44125,51 54.75,51 L52.25,51 C51.55875,51 51,51.6705 51,52.5 C51,53.3295 51.56,54 52.25,54 Z" id="Shape"></path>
                    <path d="M56,40.5 C56,39.6705 55.44125,39 54.75,39 L52.25,39 C51.55875,39 51,39.6705 51,40.5 C51,41.3295 51.55875,42 52.25,42 L54.75,42 C55.44,42 56,41.3295 56,40.5 Z" id="Shape"></path>
                    <path d="M45.25,39 C44.55875,39 44,39.6705 44,40.5 C44,41.3295 44.55875,42 45.25,42 L47.75,42 C48.44125,42 49,41.3295 49,40.5 C49,39.6705 48.44125,39 47.75,39 L45.25,39 Z" id="Shape"></path>
                    <path d="M29.75,73 L27.25,73 C26.55875,73 26,73.6705 26,74.5 C26,75.3295 26.55875,76 27.25,76 L29.75,76 C30.44125,76 31,75.3295 31,74.5 C31,73.6705 30.44,73 29.75,73 Z" id="Shape"></path>
                    <path d="M21.75,73 L19.25,73 C18.55875,73 18,73.6705 18,74.5 C18,75.3295 18.55875,76 19.25,76 L21.75,76 C22.44125,76 23,75.3295 23,74.5 C23,73.6705 22.44,73 21.75,73 Z" id="Shape"></path>
                    <path d="M65.9054902,69.0323825 C65.1496883,68.8727751 64.3994953,69.3186207 64.2298255,70.0295994 C64.068569,70.7023251 63.7558718,71.3209689 63.3001471,71.8657448 C62.8219867,72.4382212 62.9257517,73.2679162 63.5357217,73.717719 C63.793732,73.9076651 64.0980159,74 64.4008975,74 C64.8173598,74 65.2282131,73.8272018 65.5044524,73.4961153 C66.2111763,72.6519105 66.715979,71.6546936 66.9655759,70.6099902 C67.1352458,69.8976924 66.6612921,69.19199 65.9054902,69.0323825 Z" id="Shape"></path>
                    <path d="M63.8707617,67 C64.1149092,67 64.3624475,66.9138788 64.5681644,66.7367153 C65.0598502,66.3159519 65.1434933,65.5420918 64.7580568,65.009371 C64.1895098,64.2232078 63.4559371,63.5736082 62.6342001,63.1294691 C62.0724349,62.8255845 61.3965082,63.0753358 61.1184514,63.6831051 C60.8403945,64.2921047 61.0687176,65.0302861 61.6270919,65.3329404 C62.1504265,65.6146797 62.6183757,66.0292915 62.9800757,66.5312548 C63.2038775,66.8388304 63.535059,67 63.8707617,67 Z" id="Shape"></path>
                    <path d="M59,63.5 C59,62.6705 58.44125,62 57.75,62 L55.25,62 C54.55875,62 54,62.6705 54,63.5 C54,64.3295 54.55875,65 55.25,65 L57.75,65 C58.44,65 59,64.3295 59,63.5 Z" id="Shape"></path>
                    <path d="M59.6948298,73 L57.261034,73 C56.5636822,73 56,73.6705 56,74.5 C56,75.3295 56.5636822,76 57.261034,76 L59.7465322,75.9985 L59.7831021,74.4985 L59.7831021,75.9985 C60.480454,75.9985 61,75.328 61,74.4985 C61,73.6705 60.3921816,73 59.6948298,73 Z" id="Shape"></path>
                    <path d="M74.9077388,45.0581853 C74.7867854,44.3723246 74.0789333,43.9037787 73.332596,44.0168327 C72.5821353,44.1261182 72.0722069,44.7717819 72.1931603,45.4563864 C72.2316455,45.679982 72.253637,45.9073461 72.250888,46.1497841 C72.250888,46.5718522 72.1849135,46.9888957 72.0557133,47.3908653 C71.8426704,48.0566275 72.2591349,48.7550498 72.9889785,48.9497538 C73.1181787,48.98367 73.2473789,49 73.3752046,49 C73.9703502,49 74.5187637,48.6457643 74.6946959,48.0968245 C74.896743,47.4649785 74.9998283,46.8105216 74.9998283,46.1585771 C75.0025772,45.7968045 74.9723389,45.4262387 74.9077388,45.0581853 Z" id="Shape"></path>
                    <path d="M35.0719327,37.9370873 C35.7787639,37.7194095 36.1645535,37.0084964 35.9325402,36.3479134 C35.777415,35.9062665 35.6978291,35.4444875 35.6978291,34.9789338 C35.699178,34.7889376 35.7113182,34.5989413 35.7355987,34.4139781 C35.8286738,33.7244553 35.3052949,33.0940704 34.5660898,33.0085091 C33.8039531,32.9292392 33.1510784,33.4124084 33.0593522,34.0994147 C33.0215826,34.38378 33.0013489,34.6731783 33,34.9726425 C33,35.7124955 33.1241001,36.4397659 33.3682537,37.1343217 C33.5557528,37.6640464 34.0831784,38 34.6497225,38 C34.7900096,38 34.9329945,37.9811262 35.0719327,37.9370873 Z" id="Shape"></path>
                    <path d="M71.3593141,39.8395283 C70.4425339,39.3599383 69.4410092,39.0784399 68.3842723,39.0031419 C67.6793531,38.9568048 67.0591782,39.4282857 67.0039659,40.067739 C66.9487537,40.7060338 67.4764801,41.2632386 68.1839674,41.3130511 C68.8542185,41.3605467 69.4898015,41.5389449 70.0714562,41.843612 C70.2743291,41.9501875 70.4964621,42 70.7147431,42 C71.1577252,42 71.5891512,41.7926411 71.8266923,41.4231019 C72.182362,40.8705309 71.973069,40.1615718 71.3593141,39.8395283 Z" id="Shape"></path>
                    <path d="M69.2465655,50.0999495 C68.7039958,50.3298082 68.1298077,50.4460145 67.5366487,50.4460145 L67.2647314,50.4460145 C66.5653349,50.4460145 66,51.0168303 66,51.7230073 C66,52.4291842 66.5653349,53 67.2647314,53 L67.5366487,53 C68.467491,53 69.3717739,52.816113 70.2242029,52.4547241 C70.8692159,52.1814477 71.1714867,51.4331299 70.9008342,50.7831406 C70.6314464,50.1331513 69.8852549,49.826673 69.2465655,50.0999495 Z" id="Shape"></path>
                    <path d="M40.8364906,56.9353115 C40.9780942,56.2621874 41.2756049,55.6401369 41.721871,55.084875 C42.1895921,54.5034215 42.0537098,53.6836244 41.4172086,53.2540822 C40.7807073,52.8271591 39.8867449,52.9502596 39.4175934,53.5330227 C38.7181571,54.405203 38.2490057,55.3834592 38.0258726,56.4429094 C37.8771173,57.1527018 38.3848879,57.8389217 39.1615625,57.9764276 C39.2516739,57.9921425 39.3432157,58 39.4318968,58 C40.1041565,57.9973808 40.7034689,57.5612907 40.8364906,56.9353115 Z" id="Shape"></path>
                    <path d="M42.6015488,64 C43.1326502,64 43.6385941,63.7289099 43.8733968,63.2704303 C44.1934553,62.642051 43.8859756,61.9012379 43.1843627,61.6151567 C42.5288717,61.3465651 41.9348768,60.9430531 41.4680666,60.4458464 C40.9705084,59.9174081 40.0899982,59.8486986 39.4987985,60.2934363 C38.9075988,60.7369247 38.8307289,61.5252097 39.328287,62.053648 C40.0606479,62.831939 40.991473,63.4665646 42.0215302,63.8863171 C42.2102109,63.9625221 42.4072775,64 42.6015488,64 Z" id="Shape"></path>
                    <path d="M36.75,73 L34.25,73 C33.55875,73 33,73.6705 33,74.5 C33,75.3295 33.55875,76 34.25,76 L36.75,76 C37.44125,76 38,75.3295 38,74.5 C38,73.6705 37.44,73 36.75,73 Z" id="Shape"></path>
                    <path d="M44.75,73 L42.25,73 C41.55875,73 41,73.6705 41,74.5 C41,75.3295 41.55875,76 42.25,76 L44.75,76 C45.44125,76 46,75.3295 46,74.5 C46,73.6705 45.44,73 44.75,73 Z" id="Shape"></path>
                    <path d="M51,63.5 C51,62.6705 50.44125,62 49.75,62 L47.25,62 C46.55875,62 46,62.6705 46,63.5 C46,64.3295 46.55875,65 47.25,65 L49.75,65 C50.44,65 51,64.3295 51,63.5 Z" id="Shape"></path>
                    <path d="M51.75,73 L49.25,73 C48.55875,73 48,73.6705 48,74.5 C48,75.3295 48.55875,76 49.25,76 L51.75,76 C52.44125,76 53,75.3295 53,74.5 C53,73.6705 52.44,73 51.75,73 Z" id="Shape"></path>
                    <path d="M25.6715141,37.0157495 C22.8295521,33.7807992 19.0402695,32 14.9994525,32 C10.9586355,32 7.16935286,33.7807992 4.32864227,37.0157495 C-1.44288076,43.5878065 -1.44288076,54.2789074 4.32864227,60.8509643 L14.9994525,73 L25.6702627,60.8509643 C31.4430372,54.2789074 31.4430372,43.5878065 25.6715141,37.0157495 Z M14.9994525,54.7014058 C10.8585224,54.7014058 7.49096635,51.3075456 7.49096635,47.1342705 C7.49096635,42.9609954 10.8585224,39.5671353 14.9994525,39.5671353 C19.1403826,39.5671353 22.5079387,42.9609954 22.5079387,47.1342705 C22.5079387,51.3075456 19.1403826,54.7014058 14.9994525,54.7014058 Z" id="Shape"></path>
                    <path d="M60.5001584,31 L68.6935975,21.7836128 C73.1021342,16.8250296 73.1021342,8.75974211 68.6935975,3.80115885 C66.5134126,1.34969601 63.6031193,0 60.4988909,0 C57.3959301,0 54.4856367,1.34969601 52.3054518,3.80115885 C47.8981827,8.75974211 47.8981827,16.8250296 52.3054518,21.7836128 L60.5001584,31 Z M60.8119756,5.05977884 C64.6551852,5.05977884 67.7834971,8.18166238 67.7834971,12.0169747 C67.7834971,15.8522871 64.6551852,18.9741706 60.8119756,18.9741706 C56.9687659,18.9741706 53.8404541,15.8522871 53.8404541,12.0169747 C53.8404541,8.18166238 56.9687659,5.05977884 60.8119756,5.05977884 Z" id="Shape"></path>
                </g>
            </g>
        </g>
    </g>
</svg>