<?xml version="1.0" encoding="UTF-8"?>
<svg width="80px" height="77px" viewBox="0 0 80 77" version="1.1" xmlns="http://www.w3.org/2000/svg" xmlns:xlink="http://www.w3.org/1999/xlink">
    <!-- Generator: Sketch 48.1 (47250) - http://www.bohemiancoding.com/sketch -->
    <title>Group 37</title>
    <desc>Created with Sketch.</desc>
    <defs></defs>
    <g id="NEW" stroke="none" stroke-width="1" fill="none" fill-rule="evenodd" transform="translate(-68.000000, -1131.000000)">
        <g id="Group-6" transform="translate(64.000000, 782.000000)">
            <g id="Req1" transform="translate(0.000000, 312.000000)">
                <g id="Group-7-Copy-4">
                    <g id="Group-37" transform="translate(5.000000, 37.000000)">
                        <ellipse id="Oval-2" stroke="#152B58" stroke-width="2" cx="39" cy="38.5" rx="39" ry="37.5"></ellipse>
                        <g id="Group-36">
                            <ellipse id="Oval-2" cx="39.6393634" cy="38.1304348" rx="39.1653727" ry="37.5652174"></ellipse>
                            <g id="track" transform="translate(25.000000, 25.000000)" fill="#152B58" fill-rule="nonzero">
                                <path d="M28.1634746,24.2307734 L21.354252,24.2307734 C20.9891465,22.9892578 19.8051309,22.0769063 18.4038418,22.0769063 C17.0025527,22.0769063 15.8185937,22.9892031 15.4534316,24.2307734 L5.29805078,24.2307734 L5.29805078,21.04375 L12.057373,18.8683906 C12.6075234,19.6657344 13.5468516,20.192375 14.6114688,20.192375 C16.3027578,20.192375 17.6787852,18.8638516 17.6787852,17.2308281 C17.6787852,17.1737344 17.6766895,17.1171875 17.6734043,17.0609141 L24.8029297,14.7663906 C25.1445859,14.65625 25.375,14.3476484 25.375,14 L25.375,10.1178984 C26.6608555,9.76538281 27.605791,8.62219531 27.605791,7.26922656 C27.605791,5.63625781 26.2298203,4.30767969 24.5384746,4.30767969 C23.1371855,4.30767969 21.9532266,5.21997656 21.5880645,6.46154687 L14.2211582,6.46154687 L14.2211582,1.88464063 C14.2211582,0.845414062 13.3454941,0 12.269209,0 L0.836525391,0 C0.374564453,0 0,0.361648438 0,0.807679687 L0,7.26922656 C0,7.7153125 0.374564453,8.07690625 0.836525391,8.07690625 L1.58293555,8.07690625 C1.89678125,8.71303125 2.56904883,9.1538125 3.3461582,9.1538125 C4.12326758,9.1538125 4.79547852,8.71303125 5.10938086,8.07690625 L8.27530859,8.07690625 C8.5891543,8.71303125 9.26142187,9.1538125 10.0385313,9.1538125 C10.8156406,9.1538125 11.4878516,8.71303125 11.8017539,8.07690625 L21.5881211,8.07690625 C21.877668,9.0615 22.682248,9.83828125 23.7020059,10.1178984 L23.7020059,13.4178516 L17.1239902,15.5348594 C16.5687988,14.7703828 15.6499746,14.2692266 14.6116387,14.2692266 C12.9203496,14.2692266 11.5443223,15.59775 11.5443223,17.2307734 C11.5443223,17.2640234 11.5457949,17.2968906 11.5469277,17.3298672 L4.19701367,19.6953203 C3.85541406,19.8052422 3.625,20.1138984 3.625,20.4615469 L3.625,25.0384531 C3.625,25.4845391 3.99956445,25.8461328 4.46152539,25.8461328 L15.4534316,25.8461328 C15.8185371,27.0876484 17.0025527,28 18.4038418,28 C19.8051309,28 20.9890898,27.0877031 21.354252,25.8461328 L28.1634746,25.8461328 C28.6254922,25.8461328 29,25.4844844 29,25.0384531 C29,24.5924219 28.6254355,24.2307734 28.1634746,24.2307734 Z M12.5480508,2.69232031 L10.038418,2.69232031 C9.57640039,2.69232031 9.20189258,3.05396875 9.20189258,3.5 C9.20189258,3.94603125 9.57645703,4.30767969 10.038418,4.30767969 L12.5480508,4.30767969 L12.5480508,6.46154687 L1.67305078,6.46154687 L1.67305078,4.30767969 L2.23073437,4.30767969 C2.69275195,4.30767969 3.06725977,3.94603125 3.06725977,3.5 C3.06725977,3.05396875 2.69269531,2.69232031 2.23073437,2.69232031 L1.67305078,2.69232031 L1.67305078,1.61535937 L12.269209,1.61535937 C12.4229883,1.61535937 12.5480508,1.73610937 12.5480508,1.88458594 L12.5480508,2.69232031 Z M23.144209,7.26922656 C23.144209,6.52695312 23.7696348,5.92309375 24.538418,5.92309375 C25.3072012,5.92309375 25.932627,6.52695312 25.932627,7.26922656 C25.932627,8.0115 25.3072012,8.61535937 24.538418,8.61535937 C23.7696348,8.61535937 23.144209,8.0115 23.144209,7.26922656 Z M14.6115254,15.8846406 C15.3803086,15.8846406 16.0057344,16.4885 16.0057344,17.2307734 C16.0057344,17.9730469 15.3803086,18.5769062 14.6115254,18.5769062 C13.8427422,18.5769062 13.2173164,17.9730469 13.2173164,17.2307734 C13.2173164,16.4885 13.8427422,15.8846406 14.6115254,15.8846406 Z M18.4038418,26.3846406 C17.6350586,26.3846406 17.0096328,25.7807812 17.0096328,25.0385078 C17.0096328,24.2962344 17.6350586,23.692375 18.4038418,23.692375 C19.172625,23.692375 19.7980508,24.2962344 19.7980508,25.0385078 C19.7980508,25.7807266 19.172625,26.3846406 18.4038418,26.3846406 Z" id="Shape"></path>
                            </g>
                        </g>
                    </g>
                </g>
            </g>
        </g>
    </g>
</svg>