<?xml version="1.0" encoding="UTF-8"?>
<svg width="76px" height="81px" viewBox="0 0 76 81" version="1.1" xmlns="http://www.w3.org/2000/svg" xmlns:xlink="http://www.w3.org/1999/xlink">
    <!-- Generator: Sketch 48.1 (47250) - http://www.bohemiancoding.com/sketch -->
    <title>sign (1)</title>
    <desc>Created with Sketch.</desc>
    <defs></defs>
    <g id="NEW" stroke="none" stroke-width="1" fill="none" fill-rule="evenodd" transform="translate(-1040.000000, -2347.000000)">
        <g id="Group-24" transform="translate(0.000000, 2036.000000)" fill="#152B58" fill-rule="nonzero">
            <g id="Group-23" transform="translate(947.000000, 232.000000)">
                <g id="sign-(1)" transform="translate(93.000000, 79.000000)">
                    <path d="M63.3954687,28.35135 L75.4555336,17.4231 C75.8015246,17.11395 76,16.66575 76,16.2 C76,15.73425 75.8015246,15.2874 75.4608978,14.9823 L63.3954687,4.05135 L37.5494071,4.05135 L37.5494071,1.35 C37.5494071,0.60345 36.9486166,0 36.2083569,0 C35.4680971,0 34.8673066,0.60345 34.8673066,1.35 L34.8673066,4.05135 L11.260799,4.05135 C8.74901186,4.05135 6.70659232,6.1074 6.70659232,8.63595 L6.70659232,23.76405 C6.70659232,26.2926 8.74901186,28.35 11.260799,28.35 L34.8686477,28.35 L34.8686477,31.05 L12.6045313,31.05 L0.537761152,41.9823 C0.195793337,42.2928 0,42.7356 0,43.2 C0,43.6644 0.195793337,44.1072 0.539102202,44.41905 L12.6045313,55.35 L34.8673066,55.35 L34.8673066,79.65 C34.8673066,80.39655 35.4680971,81 36.2083569,81 C36.9486166,81 37.5494071,80.39655 37.5494071,79.65 L37.5494071,55.35 L65.1804065,55.35 C67.6921937,55.35 69.7346132,53.29395 69.7346132,50.7654 L69.7346132,35.6346 C69.7346132,33.10605 67.6921937,31.05 65.1804065,31.05 L37.5494071,31.05 L37.5494071,28.35135 L63.3954687,28.35135 Z" id="Shape"></path>
                </g>
            </g>
        </g>
    </g>
</svg>