<?xml version="1.0" encoding="UTF-8"?>
<svg width="52px" height="43px" viewBox="0 0 52 43" version="1.1" xmlns="http://www.w3.org/2000/svg" xmlns:xlink="http://www.w3.org/1999/xlink">
    <!-- Generator: Sketch 48.1 (47250) - http://www.bohemiancoding.com/sketch -->
    <title>left-quote-mark</title>
    <desc>Created with Sketch.</desc>
    <defs></defs>
    <g id="NEW" stroke="none" stroke-width="1" fill="none" fill-rule="evenodd" transform="translate(-209.000000, -3747.000000)">
        <g id="Testimonial-Section" transform="translate(-6.000000, 3432.000000)" fill="#F0F0F1" fill-rule="nonzero">
            <g id="Customer1" transform="translate(61.000000, 299.000000)">
                <g id="left-quote-mark" transform="translate(154.000000, 16.000000)">
                    <path d="M51.9504185,7.96526189 C52.0605996,8.3705028 51.9871455,8.75732366 51.7300562,9.12572449 C51.4731468,9.49412532 51.1240598,9.71516582 50.6833351,9.78884598 C44.4030088,10.673008 41.2261186,13.6202146 41.1526645,18.6304658 L46.8269944,18.6304658 C47.230902,18.6304658 47.579899,18.7778262 47.8737154,19.0725468 C48.1675319,19.3672675 48.3144401,19.7172483 48.3144401,20.1224892 L48.3144401,41.4527165 C48.3144401,41.8947975 48.1675319,42.2634692 47.8737154,42.557919 C47.579899,42.8528203 47.230902,43 46.8269944,43 L29.0327365,43 C28.6287389,43 28.2703801,42.8525494 27.9582001,42.557919 C27.6460202,42.2632886 27.4899302,41.8947975 27.4899302,41.4527165 L27.4899302,22.9961059 C27.4899302,15.7017696 29.2711923,10.1386462 32.8337166,6.30754846 C36.3962409,2.47617985 41.7585709,0.376295131 48.9201664,0.00789430345 C49.287437,-0.0289457793 49.6179805,0.0631544276 49.9117969,0.284194924 C50.2058834,0.505235421 50.3895187,0.799956083 50.4627027,1.16835691 L51.9504185,7.96526189 Z M24.4602182,7.96526189 C24.5703994,8.3705028 24.4969453,8.75732366 24.2398559,9.12572449 C23.9460395,9.5309654 23.5971325,9.7520059 23.1931349,9.78884598 C16.9128086,10.673008 13.2144289,13.6202146 13.1409748,18.6304658 L14.5833139,19.0725468 C14.9873115,19.0725468 20.0896988,18.7778262 20.3835152,19.0725468 C20.6773316,19.3672675 20.8242399,19.7172483 20.8242399,20.1224892 L20.8242399,41.4527165 C20.8242399,41.8947975 20.6773316,42.2634692 20.3835152,42.557919 C20.0896988,42.8528203 19.7407918,43 19.3367942,43 L1.54253629,43 C1.13853869,43 0.780449906,42.8525494 0.468269944,42.557919 C0.156089981,42.2631983 0,41.8947975 0,41.4527165 L0,22.9961059 C0,15.7017696 1.78126214,10.1386462 5.34378642,6.30754846 C8.9063107,2.47617985 14.2684606,0.376295131 21.4302363,0.00789430345 C21.7975068,-0.0289457793 22.1280503,0.0631544276 22.4218667,0.284194924 C22.7156832,0.505235421 22.8993184,0.799956083 22.9727725,1.16835691 L24.4602182,7.96526189 Z" id="Shape"></path>
                </g>
            </g>
        </g>
    </g>
</svg>