<?xml version="1.0" encoding="UTF-8"?>
<svg width="81px" height="53px" viewBox="0 0 81 53" version="1.1" xmlns="http://www.w3.org/2000/svg" xmlns:xlink="http://www.w3.org/1999/xlink">
    <!-- Generator: Sketch 48.1 (47250) - http://www.bohemiancoding.com/sketch -->
    <title>fast-delivery</title>
    <desc>Created with Sketch.</desc>
    <defs></defs>
    <g id="NEW" stroke="none" stroke-width="1" fill="none" fill-rule="evenodd" transform="translate(-847.000000, -271.000000)">
        <g id="Group" transform="translate(663.000000, 231.000000)" fill="#4C4C4C" fill-rule="nonzero">
            <g id="fast-delivery" transform="translate(184.000000, 40.000000)">
                <path d="M80.9987882,27.2993957 C80.9987882,27.2842349 80.9980214,27.2690741 80.9978297,27.2539133 C80.9755916,26.2377568 80.1604515,25.428094 79.1330912,25.428094 L78.6434704,25.428094 L71.0819531,10.7935207 C70.7629519,10.1755747 70.1266749,9.7907978 69.4242588,9.79060589 L56.5146786,9.78791917 L57.007175,5.8798905 C57.1476966,4.31813754 56.6653606,2.84351113 55.648736,1.72737016 C54.6340284,0.613532098 53.2173103,0 51.6593038,0 L11.5924451,0 C10.5850225,0 9.72924037,0.780300754 9.63319493,1.78628613 L9.23156781,5.00613022 L32.0597084,5.00613022 C33.5419905,5.00613022 34.7121728,6.20901392 34.6734479,7.69285194 C34.6345313,9.17668997 33.4014689,10.3795737 31.9191869,10.3795737 L24.3047584,10.3795737 C24.3061003,10.3834118 24.3074423,10.38725 24.3087842,10.3908963 L1.94840979,10.3908963 C0.900153407,10.3908963 0.0280761825,11.2414356 0.000662016073,12.2907924 C-0.0267521504,13.3401491 0.800657237,14.1906884 1.84891361,14.1906884 L31.4516124,14.1906884 C32.8257714,14.4025556 33.8523649,15.5921976 33.8145985,17.0324724 C33.7731897,18.6141839 32.4651697,19.8967097 30.8878008,19.9099514 L10.4790082,19.9099514 C9.42020795,19.9099514 8.53950389,20.7691266 8.5117063,21.8290383 C8.48390872,22.88895 9.31975324,23.7481253 10.3785535,23.7481253 L30.5469449,23.7481253 C31.9412332,23.9425288 32.9883394,25.1417662 32.9503813,26.5960503 C32.9087808,28.1858219 31.587533,29.4746807 29.9994284,29.4746807 L6.86168022,29.4746807 L6.86168022,29.4767917 L4.91757489,29.4767917 C3.8587746,29.4767917 2.97807054,30.3359669 2.95027296,31.3958787 C2.92247538,32.4557904 3.75812819,33.3149656 4.81712018,33.3149656 L6.49494385,33.3149656 L5.83872922,40.1887513 C5.69801595,41.7503123 6.18035191,43.2249387 7.19716827,44.3410797 C8.21168413,45.4551097 9.62859395,46.0684498 11.1866005,46.0684498 L12.6339918,46.0684498 C13.3237552,50.0167793 16.7361479,53 20.9101944,53 C25.0842409,53 28.6526835,50.0167793 29.5485325,46.0686418 L47.6110174,46.0686418 C49.0714448,46.0686418 50.454039,45.5096117 51.5383364,44.5943992 C52.5298474,45.5470339 53.8441937,46.0686418 55.2793157,46.0686418 L55.5764623,46.0686418 C56.266034,50.0167793 59.6784267,53 63.8526649,53 C68.0267114,53 71.595154,50.0167793 72.491003,46.0686418 L73.6832316,46.0686418 C76.7890842,46.0686418 79.5435369,43.5410123 79.8234298,40.4342025 L80.991695,27.4792141 C80.9932287,27.4617504 80.9924619,27.4444786 80.9936121,27.426823 C80.9955292,27.4001477 80.9991716,27.3740482 80.9999385,27.3471809 C81.0003219,27.3310606 80.9987882,27.315516 80.9987882,27.2993957 Z M20.8692454,50 C18.1132043,50 15.929564,47.7572 16.0017389,45.0002 C16.0739138,42.243 18.3749132,40 21.1309544,40 C23.8869955,40 26.0704359,42.243 25.998261,45.0002 C25.9260861,47.7572 23.6252866,50 20.8692454,50 Z M63.8692361,50 C61.1131949,50 58.9297546,47.7572 59.0017296,45.0002 C59.0739044,42.243 61.3749039,40 64.130945,40 C66.8869861,40 69.0706264,42.243 68.9982516,45.0002 C68.9260767,47.7572 66.6252772,50 63.8692361,50 Z M76.0257734,40.9300445 C75.9271368,42.0520892 74.9212327,43 73.8292112,43 L72.5531944,43 C71.7083336,39.2151665 68.4286651,36.4078174 64.4496249,36.4078174 C60.4705846,36.4078174 57.0477033,39.2151665 56.0097423,43 L55.6191791,43 C55.1369977,43 54.7067901,42.8145815 54.4072762,42.4775984 C54.1058653,42.1386697 53.9639803,41.6773609 54.0077977,41.178696 L56.3995467,14 L61.8926595,14.0011674 L61.0220014,23.8950836 C60.8825823,25.4782425 61.3596422,26.9732644 62.3655463,28.1048426 C63.3693639,29.2344752 64.7717115,29.8566876 66.3134781,29.8566876 L77,29.8566876 L76.0257734,40.9300445 Z" id="Shape"></path>
            </g>
        </g>
    </g>
</svg>