<?xml version="1.0" encoding="UTF-8"?>
<svg width="29px" height="25px" viewBox="0 0 29 25" version="1.1" xmlns="http://www.w3.org/2000/svg" xmlns:xlink="http://www.w3.org/1999/xlink">
    <!-- Generator: Sketch 48.1 (47250) - http://www.bohemiancoding.com/sketch -->
    <title>twitter</title>
    <desc>Created with Sketch.</desc>
    <defs></defs>
    <g id="NEW" stroke="none" stroke-width="1" fill="none" fill-rule="evenodd" transform="translate(-76.000000, -4839.000000)">
        <g id="Footer" transform="translate(0.000000, 4782.000000)" fill="#76A9EA" fill-rule="nonzero">
            <g id="SocialIcons" transform="translate(76.000000, 54.000000)">
                <g id="twitter" transform="translate(0.000000, 3.000000)">
                    <path d="M28.5387743,2.86244791 C27.8944397,3.15389269 27.2255704,3.38381745 26.539237,3.5502749 C27.2954976,2.81722745 27.8641072,1.90034115 28.1848958,0.876930739 C28.2764587,0.584764736 27.9653568,0.33212156 27.7067179,0.488554061 C26.7519176,1.06625085 25.7234427,1.49963162 24.6497874,1.77679626 C24.5874963,1.79287945 24.5232254,1.80102923 24.4587425,1.80102923 C24.2631725,1.80102923 24.0730467,1.72695999 23.9235057,1.59252468 C22.7811957,0.565580299 21.3120166,0 19.7866977,0 C19.1266666,0 18.460272,0.104937431 17.805968,0.311927415 C15.7787143,0.953307879 14.2145077,2.65906402 13.7237443,4.7635824 C13.5396285,5.55295709 13.4897815,6.34305301 13.5754759,7.11187295 C13.5853039,7.20022233 13.5443657,7.2618866 13.5191241,7.2908075 C13.474792,7.34150923 13.4119353,7.37057437 13.3466746,7.37057437 C13.3393919,7.37057437 13.3318972,7.37021376 13.3244732,7.36949254 C8.88688622,6.94894948 4.88526626,4.7681982 2.05671288,1.22903008 C1.91247469,1.04850885 1.63587675,1.07065029 1.52091042,1.27179839 C0.967007483,2.24111734 0.674288798,3.34977589 0.674288798,4.47790737 C0.674288798,6.20681465 1.35524862,7.83612153 2.5380725,9.02389786 C2.04066285,8.90359845 1.55923253,8.7141341 1.11202343,8.4607697 C0.895666142,8.33816239 0.629461831,8.49574885 0.626421516,8.74817566 C0.595452728,11.3165824 2.0696519,13.6019826 4.27805175,14.6310907 C4.23357831,14.6321725 4.18910487,14.6326773 4.14456072,14.6326773 C3.79450028,14.6326773 3.44005614,14.598203 3.09119768,14.530192 C2.84754827,14.4827358 2.6428573,14.7185024 2.71851165,14.9594619 C3.4353189,17.2421936 5.36217146,18.9247986 7.66800279,19.3068285 C5.75430137,20.6172122 3.52575059,21.3084289 1.20627319,21.3084289 L0.483173194,21.3079961 C0.260381751,21.3079961 0.0719529357,21.4561346 0.0151768238,21.6762508 C-0.0407508282,21.8930494 0.0622663513,22.1217481 0.252250676,22.2344747 C2.86593157,23.7860341 5.84720773,24.6060606 8.87507849,24.6060606 C11.5254553,24.6060606 14.0046553,24.0695455 16.2438825,23.0115165 C18.2966606,22.0415485 20.110668,20.6550041 21.635492,18.8903964 C23.0559553,17.246593 24.1667308,15.3489925 24.9368497,13.2503881 C25.6709796,11.2499417 26.0590087,9.1154206 26.0590087,7.0775429 L26.0590087,6.98046677 C26.0589379,6.6532495 26.2040246,6.34536091 26.4571485,6.13577454 C27.4176759,5.34026947 28.254116,4.40383813 28.9431362,3.35251653 C29.1250601,3.07491916 28.8381392,2.72700289 28.5387743,2.86244791 Z" id="Shape"></path>
                </g>
            </g>
        </g>
    </g>
</svg>